<?xml version="1.0" encoding="utf-8"?>
<svg viewBox="24.2496 20.0752 450.5739 403.0295" xmlns="http://www.w3.org/2000/svg" xmlns:bx="https://boxy-svg.com">
  <path fill="rgb(254,0,0)" stroke="rgb(254,0,0)" stroke-width="0" d="M 42.545 33.291 C 54.467 31.408 85.639 32.495 111.775 33.291 C 142.792 34.236 178.054 36.351 217.756 39.484 C 264.418 43.168 335.451 52.187 375.871 54.967 C 404.572 56.941 430.527 54.37 443.391 57.29 C 450.316 58.861 452.834 61.051 455.784 63.871 C 458.479 66.446 460.017 69.638 460.913 73.161 C 461.897 77.033 462.232 81.077 460.913 86.322 C 459.107 93.491 454.892 102.379 448.091 112.643 C 438.754 126.737 410.865 158.665 405.785 163.351 C 404.449 164.584 404.611 163.687 403.648 164.512 C 401.693 166.188 397.875 171.821 394.673 174.963 C 391.592 177.99 388.297 179.996 384.846 183.092 C 380.938 186.596 377.778 190.368 372.453 195.091 C 365.33 201.409 348.589 214.135 344.676 217.929 C 343.131 219.427 344.452 218.846 342.539 220.639 C 335.692 227.054 303.549 253.411 275.873 274.057 C 239.921 300.876 137.189 354.234 140.406 368.891 C 143.103 381.165 208.095 368.783 250.234 370.054 C 301.352 371.593 417.694 381.961 428.007 378.569 C 430.027 377.904 428.553 377.45 428.434 375.859 C 428.155 372.138 424.133 360.592 423.306 353.407 C 422.533 346.695 421.671 339.49 423.306 334.055 C 424.746 329.269 427.264 324.708 431.426 322.054 C 435.964 319.162 444.819 317.484 450.228 318.184 C 455.037 318.805 459.671 321.946 462.621 324.765 C 465.316 327.34 466.236 329.317 467.75 334.055 C 470.3 342.039 472.777 360.076 473.732 371.988 C 474.61 382.928 475.671 394.817 473.732 402.956 C 472.214 409.326 469.106 414.748 465.612 418.051 C 462.73 420.777 458.762 421.953 455.357 422.697 C 452.21 423.383 450.25 423.077 445.956 422.697 C 439.168 422.096 432.792 419.507 416.896 418.051 C 384.528 415.087 299.889 411.721 242.541 410.311 C 186.245 408.924 99.042 413.859 75.88 409.536 C 67.19 407.913 66.436 405.773 63.487 402.956 C 60.791 400.38 59.194 396.835 58.358 393.664 C 57.559 390.634 56.496 388.408 58.358 384.374 C 61.681 377.171 69.973 367.426 86.135 353.796 C 115.828 328.754 202.268 275.831 245.105 243.863 C 278.926 218.627 318.753 185.021 327.583 176.898 C 330.113 174.571 328.786 175.12 330.573 173.415 C 334.132 170.021 342.145 165.055 350.659 156.771 C 364.084 143.705 413.732 110.589 404.503 97.159 C 391.364 78.039 258.758 82.907 199.806 78.966 C 151.187 75.717 86.273 63.893 72.888 73.548 C 65.296 79.023 79.181 94.221 78.015 101.031 C 77.157 106.051 73.861 109.583 70.751 112.257 C 67.908 114.698 63.901 116.158 60.495 116.9 C 57.349 117.587 54.388 117.748 51.094 116.9 C 47.189 115.896 42.244 114.67 38.7 110.32 C 33.393 103.804 28.955 86.941 26.734 76.257 C 24.747 66.687 23.283 56.028 25.026 49.161 C 26.365 43.881 29.907 39.82 33.144 37.162 C 35.895 34.904 36.977 34.171 42.545 33.291 Z" style="fill: rgb(166, 209, 48); stroke: rgb(129, 151, 57); stroke-width: 2px;"/>
  <path d="M 370.298 347.2 L 388.673 375.845 L 351.923 375.845 L 370.298 347.2 Z" style="fill: rgb(216, 216, 216); stroke: rgb(0, 0, 0);" bx:shape="triangle 351.923 347.2 36.75 28.645 0.5 0 1@2e51efea"/>
  <path d="M 295.514 341.781 L 314.317 372.748 L 276.711 372.748 L 295.514 341.781 Z" style="fill: rgb(216, 216, 216); stroke: rgb(0, 0, 0);" bx:shape="triangle 276.711 341.781 37.606 30.967 0.5 0 1@74da2cc5"/>
  <path d="M 225.003 338.685 L 242.524 369.652 L 207.482 369.652 L 225.003 338.685 Z" style="fill: rgb(216, 216, 216); stroke: rgb(0, 0, 0);" bx:shape="triangle 207.482 338.685 35.042 30.967 0.5 0 1@32aa4618"/>
  <path d="M 317.736 -114.95 L 336.539 -82.436 L 298.933 -82.436 L 317.736 -114.95 Z" style="fill: rgb(216, 216, 216); stroke: rgb(0, 0, 0);" transform="matrix(1, 0, 0, -1, 0, 0)" bx:shape="triangle 298.933 -114.95 37.606 32.514 0.5 0 1@6756cca4"/>
  <path d="M 224.148 -111.852 L 239.96 -80.885 L 208.336 -80.885 L 224.148 -111.852 Z" style="fill: rgb(216, 216, 216); stroke: rgb(0, 0, 0);" transform="matrix(1, 0, 0, -1, 0, 0)" bx:shape="triangle 208.336 -111.852 31.624 30.967 0.5 0 1@d02637de"/>
  <path d="M -133.98 -100.24 L -116.032 -73.144 L -151.929 -73.144 L -133.98 -100.24 Z" style="fill: rgb(216, 216, 216); stroke: rgb(0, 0, 0);" transform="matrix(-1, 0, 0, -1, 0, 0)" bx:shape="triangle -151.929 -100.24 35.897 27.096 0.5 0 1@5c594181"/>
  <path stroke-width="0" d="M 377.579 20.904 C 385.555 19.74 403.067 19.437 415.187 22.454 C 427.741 25.577 444.122 33.948 451.509 39.871 C 456.591 43.945 458.488 47.751 460.057 52.258 C 461.631 56.781 462.076 62.563 460.913 66.968 C 459.803 71.16 458.129 75.153 453.646 78.193 C 447.524 82.344 431.905 85.491 423.733 86.709 C 417.586 87.625 414.544 87.219 408.349 86.709 C 400.217 86.039 387.417 84.873 378.435 82.063 C 370.016 79.43 360.327 74.895 355.786 70.837 C 352.505 67.905 351.553 65.07 350.659 61.547 C 349.675 57.676 349.777 52.554 350.659 48.387 C 351.522 44.305 353.135 40.511 355.786 36.774 C 358.744 32.608 364.162 27.449 368.178 24.776 C 371.387 22.641 372.826 21.598 377.579 20.904 Z" style="fill: rgb(166, 209, 48); stroke: rgb(129, 151, 57); stroke-width: 2px;" stroke="rgb(254,0,0)" fill="rgb(254,0,0)"/>
  <ellipse style="stroke: rgb(0, 0, 0); fill: rgb(255, 255, 255);" cx="405.34" cy="53.016" rx="31.195" ry="24.774"/>
  <ellipse style="stroke: rgb(0, 0, 0);" cx="405.767" cy="52.243" rx="14.53" ry="13.161"/>
</svg>